# xmcd CD database file
#
# Track frame offsets:
#	150
#	17820
#	34165
#	50382
#	64440
#	77452
#	95045
#	107842
#	129267
#	148447
#	167775
#	182807
#	200180
#	214585
#	231412
#	245397
#
# Disc length: 3645 seconds
#
# Revision: 0
# Processed by: cddbd v1.5.1PL2 Copyright (c) Steve Scherf et al.
# Submitted via: CDex 1.51
#
DISCID=ef0e3b10
DTITLE=magic - The singles
DYEAR=1900
DGENRE=Rock and Roll
TTITLE0=STREET ANGEL
TTITLE1=ブラッディ・マリーの夜
TTITLE2=さらば青春の光
TTITLE3=GOLDEN SUMMER
TTITLE4=東京バーニング・タウン
TTITLE5=天使のジェラシー
TTITLE6=マリアのように抱きしめてくれ
TTITLE7=あの夏が聴こえてくる
TTITLE8=Summer Rose
TTITLE9=パステルカラーに染めてくれ
TTITLE10=STAND UP, BOY
TTITLE11=ライ麦畑でつかまえて〜第２７章〜
TTITLE12=奇跡のfall in love
TTITLE13=LAST HERO
TTITLE14=STREET ANGLE II
TTITLE15=MAGIC 〜俺たちのGlory days
EXTD=
EXTT0=
EXTT1=
EXTT2=
EXTT3=
EXTT4=
EXTT5=
EXTT6=
EXTT7=
EXTT8=
EXTT9=
EXTT10=
EXTT11=
EXTT12=
EXTT13=
EXTT14=
EXTT15=
PLAYORDER=
